<?xml version="1.0" encoding="UTF-8" standalone="no"?>
<svg width="11px" height="18px" viewBox="0 0 11 18" version="1.1" xmlns="http://www.w3.org/2000/svg" xmlns:xlink="http://www.w3.org/1999/xlink">
    <!-- Generator: Sketch 42 (36781) - http://www.bohemiancoding.com/sketch -->
    <title>?</title>
    <desc>Created with Sketch.</desc>
    <defs></defs>
    <g id="Page-1" stroke="none" stroke-width="1" fill="none" fill-rule="evenodd">
        <path d="M3.5390625,12.0585938 C3.5390625,10.9648383 3.67187367,10.0937532 3.9375,9.4453125 C4.20312633,8.79687176 4.68944959,8.15820627 5.39648438,7.52929688 C6.10351916,6.90038748 6.57421758,6.38867385 6.80859375,5.99414062 C7.04296992,5.5996074 7.16015625,5.18359594 7.16015625,4.74609375 C7.16015625,3.42577465 6.55078734,2.765625 5.33203125,2.765625 C4.75390336,2.765625 4.29101736,2.9433576 3.94335938,3.29882812 C3.59570139,3.65429865 3.41406258,4.14452812 3.3984375,4.76953125 L0,4.76953125 C0.0156250781,3.27733629 0.498042129,2.10937922 1.44726562,1.265625 C2.39648912,0.421870781 3.69139805,0 5.33203125,0 C6.98828953,0 8.27343293,0.400386621 9.1875,1.20117188 C10.1015671,2.00195713 10.5585938,3.1328052 10.5585938,4.59375 C10.5585938,5.25781582 10.4101577,5.88476268 10.1132812,6.47460938 C9.81640477,7.06445607 9.29687871,7.71874641 8.5546875,8.4375 L7.60546875,9.33984375 C7.01171578,9.9101591 6.67187543,10.5781212 6.5859375,11.34375 L6.5390625,12.0585938 L3.5390625,12.0585938 Z M3.19921875,15.65625 C3.19921875,15.1328099 3.37695135,14.7011736 3.73242188,14.3613281 C4.0878924,14.0214827 4.54296598,13.8515625 5.09765625,13.8515625 C5.65234652,13.8515625 6.1074201,14.0214827 6.46289062,14.3613281 C6.81836115,14.7011736 6.99609375,15.1328099 6.99609375,15.65625 C6.99609375,16.1718776 6.82226736,16.5976546 6.47460938,16.9335938 C6.12695139,17.2695329 5.6679716,17.4375 5.09765625,17.4375 C4.5273409,17.4375 4.06836111,17.2695329 3.72070312,16.9335938 C3.37304514,16.5976546 3.19921875,16.1718776 3.19921875,15.65625 Z" id="?" fill="#000000"></path>
    </g>
</svg>